<?xml version="1.0" encoding="UTF-8" standalone="no"?>
<!-- Created with Inkscape (http://www.inkscape.org/) -->

<svg
   width="25.445803mm"
   height="14.679576mm"
   viewBox="0 0 25.445803 14.679576"
   version="1.1"
   id="svg5"
   inkscape:version="1.1 (c4e8f9ed74, 2021-05-24)"
   sodipodi:docname="tifu_complete_2.svg"
   xmlns:inkscape="http://www.inkscape.org/namespaces/inkscape"
   xmlns:sodipodi="http://sodipodi.sourceforge.net/DTD/sodipodi-0.dtd"
   xmlns="http://www.w3.org/2000/svg"
   xmlns:svg="http://www.w3.org/2000/svg">
  <sodipodi:namedview
     id="namedview7"
     pagecolor="#505050"
     bordercolor="#ffffff"
     borderopacity="1"
     inkscape:pageshadow="0"
     inkscape:pageopacity="0"
     inkscape:pagecheckerboard="1"
     inkscape:document-units="mm"
     showgrid="false"
     showguides="false"
     inkscape:object-paths="true"
     inkscape:zoom="1"
     inkscape:cx="-0.5"
     inkscape:cy="-38"
     inkscape:window-width="663"
     inkscape:window-height="642"
     inkscape:window-x="688"
     inkscape:window-y="55"
     inkscape:window-maximized="1"
     inkscape:current-layer="layer1"
     fit-margin-top="0"
     fit-margin-left="0"
     fit-margin-right="0"
     fit-margin-bottom="0" />
  <defs
     id="defs2">
    <rect
       x="292.81125"
       y="439.55295"
       width="137.44638"
       height="177.50047"
       id="rect40189" />
    <rect
       x="187.0836"
       y="719.38336"
       width="23.198538"
       height="27.48649"
       id="rect33341" />
    <rect
       x="216.28107"
       y="685.12854"
       width="65.588806"
       height="90.429939"
       id="rect26004" />
    <rect
       x="115.24345"
       y="718.7771"
       width="239.33015"
       height="177.92508"
       id="rect22148" />
  </defs>
  <g
     inkscape:label="Camada 1"
     inkscape:groupmode="layer"
     id="layer1"
     transform="translate(-76.027185,-122.87487)">
    <text
       xml:space="preserve"
       transform="scale(0.26458333)"
       id="text22146"
       style="font-size:18.6667px;line-height:1.25;font-family:sans-serif;word-spacing:0px;white-space:pre;shape-inside:url(#rect22148)" />
    <text
       xml:space="preserve"
       transform="scale(0.26458333)"
       id="text33339"
       style="font-size:18.6667px;line-height:1.25;font-family:sans-serif;word-spacing:0px;white-space:pre;shape-inside:url(#rect33341)"><tspan
         x="187.08398"
         y="763.3848"
         id="tspan73584"><tspan
           dx="0 10.828144 5.1862068 6.5716267"
           id="tspan73582">Tifu</tspan></tspan></text>
    <g
       aria-label="Tifu"
       transform="scale(0.26458333)"
       id="text40187"
       style="font-size:74.6667px;font-family:'Open Sans';-inkscape-font-specification:'Open Sans';word-spacing:0px;white-space:pre;fill:#212121">
      <path
         style="color:#000000;-inkscape-font-specification:'Open Sans';-inkscape-stroke:none"
         d="M 316.54492,505.71106 H 308.347 v -33.79687 h -14.8802 v -7.50521 h 39.95833 v 7.50521 h -16.88021 z"
         id="path59481"
         sodipodi:nodetypes="ccccccccc" />
      <path
         style="color:#000000;-inkscape-font-specification:'Open Sans';-inkscape-stroke:none"
         d="m 332.58659,505.71106 h -6.05209 v -15.95833 h 6.05209 z m -6.5625,-22.78646 c 0,-1.38541 0.34028,-2.39409 1.02083,-3.02604 0.68055,-0.65625 1.53125,-0.98437 2.55208,-0.98437 0.97223,0 1.81077,0.32812 2.51563,0.98437 0.70486,0.65625 1.05729,1.66493 1.05729,3.02604 0,1.36111 -0.35243,2.38195 -1.05729,3.0625 -0.70486,0.65625 -1.5434,0.98438 -2.51563,0.98438 -1.02083,0 -1.87153,-0.32813 -2.55208,-0.98438 -0.68055,-0.68055 -1.02083,-1.70139 -1.02083,-3.0625 z"
         id="path59483"
         sodipodi:nodetypes="cccccscssscscs" />
      <path
         style="color:#000000;-inkscape-font-specification:'Open Sans';-inkscape-stroke:none"
         d="m 353.26971,486.57202 h -10.17187 v 19.25521 h -6.05209 c 0,-8.80035 0,-17.60069 0,-26.40104 0,-9.81944 4.28993,-14.72916 12.8698,-14.72916 2.11458,0 4.59375,0.42535 7.4375,1.27604 l -1.56771,4.84895 c -2.33333,-0.75347 -4.32639,-1.1302 -5.97917,-1.1302 -2.28472,0 -3.97396,0.76562 -5.06771,2.29687 -1.09375,1.50695 -1.64062,3.9375 -1.64062,7.29167 v 2.58854 h 10.17187 z"
         id="path59485"
         sodipodi:nodetypes="cccccsccscsccc" />
      <path
         style="color:#000000;-inkscape-font-specification:'Open Sans';stroke-width:0.707874;-inkscape-stroke:none"
         d="m 362.44142,483.86886 -0.21109,12.56474 c -0.0389,2.31622 0.54782,3.74125 1.59233,4.88224 1.04452,1.14099 1.70824,1.3217 3.9339,1.36178 2.0702,0.0373 3.94011,-0.78963 5.27571,-2.36861 1.36986,-1.62505 1.52678,-3.51143 1.52678,-7.19371 v -9.24644 h 4.85469 v 22.73084 h -3.51883 l 0.79256,-3.81193 -0.36195,-0.0222 c -0.87329,1.40031 -1.95824,2.49437 -3.51646,3.23774 -1.5411,0.74337 -3.39285,0.59842 -5.37914,0.59842 -3.42465,0 -5.90508,-0.30453 -7.6174,-1.94686 -1.69521,-1.64233 -2.54281,-4.27006 -2.54281,-7.88319 V 483.8689 Z"
         id="path59487"
         sodipodi:nodetypes="cssscscccccccscscc" />
    </g>
    <path
       id="rect3150"
       style="fill:#2962ff;fill-opacity:1;fill-rule:nonzero;stroke:none;stroke-width:0;stroke-linejoin:round;stroke-miterlimit:4;stroke-dasharray:none;stroke-opacity:0;paint-order:stroke fill markers"
       d="m 76.032085,137.14531 -0.0049,-7.81947 3.128462,0.0125 -0.091,5.09565 c 0,0 13.849345,0.28986 22.375543,0.46169 l 0.0328,2.65877 c -8.501311,-0.0228 -16.939653,-0.37441 -25.440928,-0.40914 z"
       sodipodi:nodetypes="ccccccc" />
  </g>
</svg>
